<svg width="12" height="12" viewBox="0 0 12 12" fill="none" xmlns="http://www.w3.org/2000/svg">
<path d="M2.67993 9.88334C2.52438 10.0389 2.2722 10.0389 2.11666 9.88334C1.96111 9.7278 1.96111 9.47562 2.11666 9.32007L5.43673 5.99999L2.11667 2.67993C1.96113 2.52438 1.96113 2.2722 2.11667 2.11666C2.27221 1.96111 2.52439 1.96111 2.67994 2.11666L6 5.43672L9.32006 2.11666C9.47561 1.96111 9.72779 1.96111 9.88333 2.11666C10.0389 2.2722 10.0389 2.52438 9.88333 2.67993L6.56327 5.99999L9.88334 9.32007C10.0389 9.47562 10.0389 9.7278 9.88334 9.88334C9.7278 10.0389 9.47562 10.0389 9.32007 9.88334L6 6.56326L2.67993 9.88334Z" fill="#5F6190"/>
</svg>
