<svg width="94" height="40" viewBox="0 0 94 40" fill="none" xmlns="http://www.w3.org/2000/svg">
<path d="M22.2269 32.6759C23.1528 33.3595 24.4583 33.1565 25.1365 32.2233C25.8147 31.29 25.6133 29.9741 24.6875 29.2905C24.3541 29.0455 23.9722 28.9125 23.588 28.8891C22.9051 28.8471 22.213 29.1458 21.7779 29.7431C21.4492 30.1957 21.3149 30.7487 21.4006 31.304C21.4862 31.8569 21.7779 32.3446 22.2269 32.6759Z" fill="#E9C259"/>
<path d="M31.1084 26.3036C31.1131 25.1884 30.2474 24.2691 29.1548 24.2014C29.1155 24.1991 29.0761 24.1968 29.0345 24.1968C28.4789 24.1968 27.9558 24.4114 27.56 24.8057C27.1642 25.2 26.9466 25.7273 26.9443 26.2873C26.9397 27.4446 27.8702 28.3872 29.0159 28.3942C30.164 28.3988 31.1015 27.4609 31.1061 26.3036H31.1084Z" fill="#E9C259"/>
<path d="M32.488 17.9766C32.1639 17.5216 31.6825 17.2206 31.1339 17.1319C31.0645 17.1203 30.9927 17.1133 30.9233 17.1086C30.4464 17.0783 29.9765 17.2159 29.583 17.5006C28.6525 18.1772 28.4396 19.4908 29.1108 20.4287C29.4349 20.8837 29.9164 21.1823 30.4649 21.2733C31.0158 21.3643 31.5644 21.2313 32.0158 20.9047C32.4672 20.5781 32.7634 20.0927 32.8537 19.5398C32.944 18.9868 32.8121 18.4315 32.488 17.9766Z" fill="#E9C259"/>
<path d="M22.9074 6.65852C22.6459 6.52319 22.3658 6.4462 22.0834 6.42986C21.8288 6.41353 21.5719 6.4462 21.3196 6.52786C20.7895 6.69818 20.359 7.06682 20.1043 7.56612C19.8497 8.06542 19.8034 8.63238 19.9724 9.16668C20.1414 9.70098 20.5071 10.135 21.0024 10.3916C21.4978 10.6483 22.0603 10.6949 22.5903 10.5246C23.6829 10.1723 24.287 8.98703 23.9375 7.88577C23.7685 7.35147 23.4028 6.9175 22.9074 6.66085V6.65852Z" fill="#E9C259"/>
<path d="M28.7498 10.4219C28.5761 10.3635 28.4002 10.3309 28.2266 10.3192C27.3054 10.2632 26.4235 10.8325 26.1226 11.7565C25.7638 12.8554 26.3587 14.043 27.4489 14.4046C27.9766 14.5796 28.5414 14.5376 29.0368 14.2856C29.5321 14.0336 29.9025 13.602 30.0761 13.07C30.2497 12.5381 30.208 11.9688 29.958 11.4695C29.708 10.9702 29.2798 10.5969 28.7521 10.4219H28.7498Z" fill="#E9C259"/>
<path d="M16.8522 33.4738C17.3823 33.3035 17.8128 32.9348 18.0674 32.4355C18.322 31.9362 18.3683 31.3693 18.1993 30.835C18.0304 30.3007 17.6647 29.8667 17.1693 29.6101C16.9077 29.4747 16.6277 29.3977 16.3453 29.3791C16.0907 29.3628 15.8337 29.3954 15.5814 29.4771C15.0514 29.6474 14.6208 30.016 14.3662 30.5153C14.1116 31.0146 14.0653 31.5816 14.2343 32.1159C14.5838 33.2172 15.7597 33.8261 16.8522 33.4738Z" fill="#E9C259"/>
<path d="M9.422 29.5772C9.94975 29.7522 10.5145 29.7102 11.0099 29.4583C11.5052 29.2063 11.8756 28.7746 12.0492 28.2427C12.408 27.1437 11.8131 25.9562 10.7229 25.5922C10.5493 25.5339 10.3733 25.5012 10.1951 25.4895C9.8317 25.4662 9.46829 25.5409 9.13498 25.7112C8.63963 25.9632 8.26928 26.3948 8.09568 26.9268C7.92207 27.4587 7.96374 28.028 8.21373 28.5273C8.46371 29.0266 8.89193 29.3999 9.41969 29.5749L9.422 29.5772Z" fill="#E9C259"/>
<path d="M7.06332 13.6955C7.06332 14.2555 7.27627 14.7828 7.66746 15.1818C8.05864 15.5784 8.58176 15.8001 9.13729 15.8024C9.69282 15.8024 10.2159 15.5877 10.6118 15.1934C11.0076 14.7991 11.2252 14.2718 11.2275 13.7119C11.2321 12.5966 10.3664 11.6773 9.27386 11.6097C9.23451 11.6073 9.19516 11.605 9.15349 11.605C8.0054 11.6003 7.06795 12.5383 7.06332 13.6955Z" fill="#E9C259"/>
<path d="M5.68376 22.0225C6.00782 22.4774 6.48927 22.7784 7.03786 22.8671C7.58644 22.9581 8.13734 22.8251 8.58871 22.4984C9.51922 21.8218 9.73217 20.5082 9.06091 19.5703C8.73685 19.1153 8.25539 18.8167 7.70681 18.7257C7.63737 18.714 7.56561 18.707 7.49617 18.7024C7.01934 18.672 6.54946 18.8097 6.15596 19.0943C5.70459 19.421 5.40831 19.9063 5.31804 20.4592C5.22776 21.0122 5.3597 21.5675 5.68376 22.0225Z" fill="#E9C259"/>
<path d="M15.9448 7.32366C15.6115 7.07867 15.2296 6.94568 14.8453 6.92235C14.1625 6.88035 13.4704 7.179 13.0352 7.77629C12.357 8.70956 12.5584 10.0255 13.4843 10.7091C14.4102 11.3927 15.7157 11.1897 16.3939 10.2565C16.7226 9.80382 16.8568 9.25086 16.7712 8.69557C16.6855 8.1426 16.3939 7.65497 15.9448 7.32366Z" fill="#E9C259"/>
<path d="M30.3099 34.6266C29.796 34.2626 29.0877 34.3886 28.7289 34.9065C28.3678 35.4245 28.4928 36.1385 29.0067 36.5001C29.5205 36.8641 30.2288 36.7381 30.5876 36.2201C30.9487 35.7022 30.8237 34.9882 30.3099 34.6266Z" fill="#E9C259"/>
<path d="M18.1947 37.7717C17.6022 37.977 17.285 38.628 17.4887 39.2253C17.6924 39.8226 18.3382 40.1422 18.9308 39.9369C19.5234 39.7316 19.8405 39.0806 19.6368 38.4833C19.4331 37.886 18.7873 37.5664 18.1947 37.7717Z" fill="#E9C259"/>
<path d="M8.00077 33.8496C7.40127 33.6653 6.76704 34.0036 6.58186 34.6079C6.39669 35.2122 6.73463 35.8514 7.33414 36.0381C7.93365 36.2224 8.56788 35.8841 8.75305 35.2798C8.93591 34.6755 8.60028 34.0362 8.00077 33.8496Z" fill="#E9C259"/>
<path d="M0.452535 24.4095C-0.0474405 24.7898 -0.149287 25.5061 0.228009 26.0124C0.605305 26.5164 1.31592 26.6191 1.81821 26.2388C2.31818 25.8584 2.42003 25.1422 2.04273 24.6359C1.66544 24.1319 0.954825 24.0292 0.452535 24.4095Z" fill="#E9C259"/>
<path d="M1.47795 14.8154C2.10523 14.8037 2.60521 14.2834 2.59363 13.6512C2.58206 13.0189 2.06588 12.5149 1.4386 12.5266C0.811314 12.5382 0.311338 13.0585 0.322912 13.6908C0.334485 14.3231 0.850663 14.8271 1.47795 14.8154Z" fill="#E9C259"/>
<path d="M7.86189 5.37316C8.37576 5.73713 9.08405 5.61114 9.44283 5.09317C9.80393 4.57521 9.67893 3.86126 9.16507 3.49961C8.6512 3.13564 7.94291 3.26163 7.58413 3.7796C7.22303 4.29756 7.34803 5.01151 7.86189 5.37316Z" fill="#E9C259"/>
<path d="M19.9794 2.2279C20.5719 2.02258 20.889 1.37162 20.6853 0.774325C20.4816 0.177032 19.8358 -0.142614 19.2433 0.0627059C18.6507 0.268026 18.3336 0.918982 18.5373 1.51628C18.741 2.11357 19.3868 2.43321 19.9794 2.2279Z" fill="#E9C259"/>
<path d="M30.171 6.14992C30.7705 6.33424 31.4047 5.99593 31.5899 5.39163C31.7727 4.78734 31.4371 4.14805 30.8376 3.96139C30.2381 3.77707 29.6039 4.11538 29.4187 4.71968C29.2358 5.32397 29.5715 5.96326 30.171 6.14992Z" fill="#E9C259"/>
<path d="M37.7215 15.5898C38.2215 15.2095 38.3234 14.4932 37.9461 13.9869C37.5688 13.483 36.8582 13.3803 36.3559 13.7606C35.8559 14.1409 35.754 14.8572 36.1313 15.3635C36.5086 15.8698 37.2192 15.9701 37.7215 15.5898Z" fill="#E9C259"/>
<path d="M37.8488 26.3084C37.8373 25.6761 37.3211 25.1721 36.6938 25.1838C36.0665 25.1955 35.5665 25.7158 35.5781 26.348C35.5897 26.9803 36.1059 27.4843 36.7332 27.4726C37.3604 27.461 37.8604 26.9407 37.8488 26.3084Z" fill="#E9C259"/>
<path d="M23.4676 25.2983C23.9838 24.6543 24.9212 24.554 25.5601 25.0766C26.199 25.5969 26.2985 26.5419 25.78 27.1858C25.2638 27.8298 24.3264 27.9301 23.6875 27.4075C23.0486 26.8872 22.9491 25.9423 23.4676 25.2983Z" fill="#E9C259"/>
<path d="M19.5419 26.8826C18.7479 27.0972 18.2757 27.9185 18.4887 28.7188C18.7016 29.519 19.5164 29.995 20.3104 29.7804C21.1043 29.5657 21.5765 28.7444 21.3635 27.9442C21.1506 27.1439 20.3358 26.6679 19.5419 26.8826Z" fill="#E9C259"/>
<path d="M14.3731 28.6393C15.1416 28.9357 16.0004 28.5507 16.2967 27.7761C16.5929 27.0014 16.2087 26.1358 15.4402 25.8372C14.6717 25.5409 13.813 25.9259 13.5167 26.7005C13.2227 27.4751 13.6047 28.3407 14.3731 28.6393Z" fill="#E9C259"/>
<path d="M12.2945 24.638C12.9843 24.1876 13.1788 23.2567 12.732 22.5638C12.2853 21.8685 11.3617 21.6725 10.6743 22.1228C9.98447 22.5731 9.79004 23.504 10.2368 24.197C10.6835 24.8923 11.6071 25.0883 12.2945 24.638Z" fill="#E9C259"/>
<path d="M10.8872 19.7265C11.7089 19.7708 12.408 19.1339 12.4519 18.3079C12.4959 17.482 11.864 16.775 11.0446 16.7307C10.2229 16.6864 9.52385 17.3233 9.47987 18.1493C9.43589 18.9775 10.0678 19.6822 10.8872 19.7265Z" fill="#E9C259"/>
<path d="M14.7041 14.701C15.2203 14.057 15.1231 13.1121 14.4843 12.5918C13.8454 12.0715 12.9079 12.1695 12.3918 12.8134C11.8756 13.4574 11.9728 14.4023 12.6117 14.9226C13.2505 15.4429 14.188 15.3449 14.7041 14.701Z" fill="#E9C259"/>
<path d="M18.6322 13.1168C19.4261 12.9021 19.8983 12.0809 19.6854 11.2806C19.4724 10.4803 18.6577 10.0043 17.8637 10.219C17.0698 10.4336 16.5976 11.2549 16.8105 12.0552C17.0235 12.8555 17.8383 13.3314 18.6322 13.1168Z" fill="#E9C259"/>
<path d="M24.655 13.299C24.949 12.5244 24.5671 11.6588 23.7986 11.3601C23.0301 11.0638 22.1714 11.4488 21.8751 12.2234C21.5811 12.998 21.963 13.8636 22.7315 14.1623C23.5 14.4586 24.3588 14.0736 24.655 13.299Z" fill="#E9C259"/>
<path d="M27.4975 17.8762C28.1873 17.4259 28.3817 16.495 27.935 15.802C27.4882 15.1068 26.5647 14.9108 25.8772 15.3611C25.1874 15.8114 24.993 16.7423 25.4397 17.4353C25.8865 18.1306 26.81 18.3265 27.4975 17.8762Z" fill="#E9C259"/>
<path d="M27.1295 23.266C27.9512 23.3104 28.6502 22.6734 28.6942 21.8475C28.7382 21.0192 28.1063 20.3146 27.2869 20.2702C26.4651 20.2259 25.7661 20.8629 25.7221 21.6888C25.6781 22.5171 26.3101 23.2217 27.1295 23.266Z" fill="#E9C259"/>
<path d="M30.9256 29.7756C30.0298 29.1947 28.8377 29.456 28.2613 30.3589C27.685 31.2619 27.9442 32.4635 28.84 33.0444C29.7358 33.6254 30.9279 33.3641 31.5042 32.4611C32.0806 31.5582 31.8214 30.3566 30.9256 29.7756Z" fill="#E9C259"/>
<path d="M20.4678 33.8167C19.4747 34.2064 18.984 35.3333 19.3706 36.3319C19.7571 37.3328 20.8751 37.8275 21.8658 37.4378C22.8588 37.0482 23.3496 35.9212 22.963 34.9226C22.5764 33.9217 21.4584 33.4271 20.4678 33.8167Z" fill="#E9C259"/>
<path d="M12.3115 35.702C13.3124 35.3354 13.8289 34.2204 13.4652 33.2115C13.1015 32.2027 11.9953 31.682 10.9945 32.0486C9.99363 32.4152 9.4771 33.5302 9.84079 34.5391C10.2045 35.5479 11.3107 36.0686 12.3115 35.702Z" fill="#E9C259"/>
<path d="M3.76256 25.3167C2.93852 25.9957 2.81584 27.2206 3.48942 28.0512C4.163 28.8818 5.37822 29.0055 6.20225 28.3265C7.02629 27.6476 7.14896 26.4226 6.47539 25.592C5.80181 24.7614 4.58659 24.6378 3.76256 25.3167Z" fill="#E9C259"/>
<path d="M1.77191 17.2742C1.8321 18.3452 2.74409 19.1641 3.80654 19.1035C4.86898 19.0428 5.68376 18.1235 5.62126 17.0526C5.56108 15.9817 4.64909 15.1627 3.58664 15.2234C2.52419 15.284 1.70942 16.2033 1.77191 17.2742Z" fill="#E9C259"/>
<path d="M7.24618 10.2212C8.14197 10.8021 9.33404 10.5408 9.9104 9.63788C10.4868 8.73494 10.2275 7.53335 9.33173 6.95239C8.43594 6.37143 7.24387 6.63274 6.66751 7.53568C6.09115 8.43862 6.35039 9.64021 7.24618 10.2212Z" fill="#E9C259"/>
<path d="M17.7063 6.18244C18.6993 5.7928 19.19 4.66587 18.8035 3.66727C18.4169 2.66634 17.2989 2.17171 16.3082 2.56135C15.3175 2.95099 14.8245 4.07791 15.2111 5.07651C15.5976 6.07745 16.7156 6.57208 17.7063 6.18244Z" fill="#E9C259"/>
<path d="M26.0253 8.00219C27.0554 8.27517 28.1109 7.65455 28.3817 6.61629C28.6525 5.57802 28.0368 4.51409 27.0068 4.24111C25.9767 3.96813 24.9212 4.58875 24.6504 5.62702C24.3796 6.66528 24.9953 7.72921 26.0253 8.00219Z" fill="#E9C259"/>
<path d="M34.4092 14.68C35.2332 14.0011 35.3559 12.7761 34.6823 11.9455C34.0088 11.1149 32.7935 10.9913 31.9695 11.6702C31.1455 12.3492 31.0228 13.5741 31.6964 14.4047C32.3699 15.2353 33.5852 15.359 34.4092 14.68Z" fill="#E9C259"/>
<path d="M36.3998 22.7247C36.3397 21.6538 35.4277 20.8325 34.3652 20.8955C33.3028 20.9561 32.488 21.8754 32.5505 22.9463C32.6107 24.0173 33.5227 24.8386 34.5851 24.7756C35.6476 24.7149 36.46 23.7956 36.3998 22.7247Z" fill="#E9C259"/>
<path d="M22.2269 32.6759C23.1528 33.3595 24.4583 33.1565 25.1365 32.2233C25.8147 31.29 25.6133 29.9741 24.6875 29.2905C24.3541 29.0455 23.9722 28.9125 23.588 28.8891C22.9051 28.8471 22.213 29.1458 21.7779 29.7431C21.4492 30.1957 21.3149 30.7487 21.4006 31.304C21.4862 31.8569 21.7779 32.3446 22.2269 32.6759Z" fill="url(#paint0_linear_32364_8593)"/>
<path d="M31.1084 26.3036C31.1131 25.1884 30.2474 24.2691 29.1548 24.2014C29.1155 24.1991 29.0761 24.1968 29.0345 24.1968C28.4789 24.1968 27.9558 24.4114 27.56 24.8057C27.1642 25.2 26.9466 25.7273 26.9443 26.2873C26.9397 27.4446 27.8702 28.3872 29.0159 28.3942C30.164 28.3988 31.1015 27.4609 31.1061 26.3036H31.1084Z" fill="url(#paint1_linear_32364_8593)"/>
<path d="M32.488 17.9766C32.1639 17.5216 31.6825 17.2206 31.1339 17.1319C31.0645 17.1203 30.9927 17.1133 30.9233 17.1086C30.4464 17.0783 29.9765 17.2159 29.583 17.5006C28.6525 18.1772 28.4396 19.4908 29.1108 20.4287C29.4349 20.8837 29.9164 21.1823 30.4649 21.2733C31.0158 21.3643 31.5644 21.2313 32.0158 20.9047C32.4672 20.5781 32.7634 20.0927 32.8537 19.5398C32.944 18.9868 32.8121 18.4315 32.488 17.9766Z" fill="url(#paint2_linear_32364_8593)"/>
<path d="M22.9074 6.65852C22.6459 6.52319 22.3658 6.4462 22.0834 6.42986C21.8288 6.41353 21.5719 6.4462 21.3196 6.52786C20.7895 6.69818 20.359 7.06682 20.1043 7.56612C19.8497 8.06542 19.8034 8.63238 19.9724 9.16668C20.1414 9.70098 20.5071 10.135 21.0024 10.3916C21.4978 10.6483 22.0603 10.6949 22.5903 10.5246C23.6829 10.1723 24.287 8.98703 23.9375 7.88577C23.7685 7.35147 23.4028 6.9175 22.9074 6.66085V6.65852Z" fill="url(#paint3_linear_32364_8593)"/>
<path d="M28.7498 10.4219C28.5761 10.3635 28.4002 10.3309 28.2266 10.3192C27.3054 10.2632 26.4235 10.8325 26.1226 11.7565C25.7638 12.8554 26.3587 14.043 27.4489 14.4046C27.9766 14.5796 28.5414 14.5376 29.0368 14.2856C29.5321 14.0336 29.9025 13.602 30.0761 13.07C30.2497 12.5381 30.208 11.9688 29.958 11.4695C29.708 10.9702 29.2798 10.5969 28.7521 10.4219H28.7498Z" fill="url(#paint4_linear_32364_8593)"/>
<path d="M16.8522 33.4738C17.3823 33.3035 17.8128 32.9348 18.0674 32.4355C18.322 31.9362 18.3683 31.3693 18.1993 30.835C18.0304 30.3007 17.6647 29.8667 17.1693 29.6101C16.9077 29.4747 16.6277 29.3977 16.3453 29.3791C16.0907 29.3628 15.8337 29.3954 15.5814 29.4771C15.0514 29.6474 14.6208 30.016 14.3662 30.5153C14.1116 31.0146 14.0653 31.5816 14.2343 32.1159C14.5838 33.2172 15.7597 33.8261 16.8522 33.4738Z" fill="url(#paint5_linear_32364_8593)"/>
<path d="M9.422 29.5772C9.94975 29.7522 10.5145 29.7102 11.0099 29.4583C11.5052 29.2063 11.8756 28.7746 12.0492 28.2427C12.408 27.1437 11.8131 25.9562 10.7229 25.5922C10.5493 25.5339 10.3733 25.5012 10.1951 25.4895C9.8317 25.4662 9.46829 25.5409 9.13498 25.7112C8.63963 25.9632 8.26928 26.3948 8.09568 26.9268C7.92207 27.4587 7.96374 28.028 8.21373 28.5273C8.46371 29.0266 8.89193 29.3999 9.41969 29.5749L9.422 29.5772Z" fill="url(#paint6_linear_32364_8593)"/>
<path d="M7.06332 13.6955C7.06332 14.2555 7.27627 14.7828 7.66746 15.1818C8.05864 15.5784 8.58176 15.8001 9.13729 15.8024C9.69282 15.8024 10.2159 15.5877 10.6118 15.1934C11.0076 14.7991 11.2252 14.2718 11.2275 13.7119C11.2321 12.5966 10.3664 11.6773 9.27386 11.6097C9.23451 11.6073 9.19516 11.605 9.15349 11.605C8.0054 11.6003 7.06795 12.5383 7.06332 13.6955Z" fill="url(#paint7_linear_32364_8593)"/>
<path d="M5.68376 22.0225C6.00782 22.4774 6.48927 22.7784 7.03786 22.8671C7.58644 22.9581 8.13734 22.8251 8.58871 22.4984C9.51922 21.8218 9.73217 20.5082 9.06091 19.5703C8.73685 19.1153 8.25539 18.8167 7.70681 18.7257C7.63737 18.714 7.56561 18.707 7.49617 18.7024C7.01934 18.672 6.54946 18.8097 6.15596 19.0943C5.70459 19.421 5.40831 19.9063 5.31804 20.4592C5.22776 21.0122 5.3597 21.5675 5.68376 22.0225Z" fill="url(#paint8_linear_32364_8593)"/>
<path d="M15.9448 7.32366C15.6115 7.07867 15.2296 6.94568 14.8453 6.92235C14.1625 6.88035 13.4704 7.179 13.0352 7.77629C12.357 8.70956 12.5584 10.0255 13.4843 10.7091C14.4102 11.3927 15.7157 11.1897 16.3939 10.2565C16.7226 9.80382 16.8568 9.25086 16.7712 8.69557C16.6855 8.1426 16.3939 7.65497 15.9448 7.32366Z" fill="url(#paint9_linear_32364_8593)"/>
<path d="M30.3099 34.6266C29.796 34.2626 29.0877 34.3886 28.7289 34.9065C28.3678 35.4245 28.4928 36.1385 29.0067 36.5001C29.5205 36.8641 30.2288 36.7381 30.5876 36.2201C30.9487 35.7022 30.8237 34.9882 30.3099 34.6266Z" fill="url(#paint10_linear_32364_8593)"/>
<path d="M18.1947 37.7717C17.6022 37.977 17.285 38.628 17.4887 39.2253C17.6924 39.8226 18.3382 40.1422 18.9308 39.9369C19.5234 39.7316 19.8405 39.0806 19.6368 38.4833C19.4331 37.886 18.7873 37.5664 18.1947 37.7717Z" fill="url(#paint11_linear_32364_8593)"/>
<path d="M8.00077 33.8496C7.40127 33.6653 6.76704 34.0036 6.58186 34.6079C6.39669 35.2122 6.73463 35.8514 7.33414 36.0381C7.93365 36.2224 8.56788 35.8841 8.75305 35.2798C8.93591 34.6755 8.60028 34.0362 8.00077 33.8496Z" fill="url(#paint12_linear_32364_8593)"/>
<path d="M0.452535 24.4095C-0.0474405 24.7898 -0.149287 25.5061 0.228009 26.0124C0.605305 26.5164 1.31592 26.6191 1.81821 26.2388C2.31818 25.8584 2.42003 25.1422 2.04273 24.6359C1.66544 24.1319 0.954825 24.0292 0.452535 24.4095Z" fill="url(#paint13_linear_32364_8593)"/>
<path d="M1.47795 14.8154C2.10523 14.8037 2.60521 14.2834 2.59363 13.6512C2.58206 13.0189 2.06588 12.5149 1.4386 12.5266C0.811314 12.5382 0.311338 13.0585 0.322912 13.6908C0.334485 14.3231 0.850663 14.8271 1.47795 14.8154Z" fill="url(#paint14_linear_32364_8593)"/>
<path d="M7.86189 5.37316C8.37576 5.73713 9.08405 5.61114 9.44283 5.09317C9.80393 4.57521 9.67893 3.86126 9.16507 3.49961C8.6512 3.13564 7.94291 3.26163 7.58413 3.7796C7.22303 4.29756 7.34803 5.01151 7.86189 5.37316Z" fill="url(#paint15_linear_32364_8593)"/>
<path d="M19.9794 2.2279C20.5719 2.02258 20.889 1.37162 20.6853 0.774325C20.4816 0.177032 19.8358 -0.142614 19.2433 0.0627059C18.6507 0.268026 18.3336 0.918982 18.5373 1.51628C18.741 2.11357 19.3868 2.43321 19.9794 2.2279Z" fill="url(#paint16_linear_32364_8593)"/>
<path d="M30.171 6.14992C30.7705 6.33424 31.4047 5.99593 31.5899 5.39163C31.7727 4.78734 31.4371 4.14805 30.8376 3.96139C30.2381 3.77707 29.6039 4.11538 29.4187 4.71968C29.2358 5.32397 29.5715 5.96326 30.171 6.14992Z" fill="url(#paint17_linear_32364_8593)"/>
<path d="M37.7215 15.5898C38.2215 15.2095 38.3234 14.4932 37.9461 13.9869C37.5688 13.483 36.8582 13.3803 36.3559 13.7606C35.8559 14.1409 35.754 14.8572 36.1313 15.3635C36.5086 15.8698 37.2192 15.9701 37.7215 15.5898Z" fill="url(#paint18_linear_32364_8593)"/>
<path d="M37.8488 26.3084C37.8373 25.6761 37.3211 25.1721 36.6938 25.1838C36.0665 25.1955 35.5665 25.7158 35.5781 26.348C35.5897 26.9803 36.1059 27.4843 36.7332 27.4726C37.3604 27.461 37.8604 26.9407 37.8488 26.3084Z" fill="url(#paint19_linear_32364_8593)"/>
<path d="M23.4676 25.2983C23.9838 24.6543 24.9212 24.554 25.5601 25.0766C26.199 25.5969 26.2985 26.5419 25.78 27.1858C25.2638 27.8298 24.3264 27.9301 23.6875 27.4075C23.0486 26.8872 22.9491 25.9423 23.4676 25.2983Z" fill="url(#paint20_linear_32364_8593)"/>
<path d="M19.5419 26.8826C18.7479 27.0972 18.2757 27.9185 18.4887 28.7188C18.7016 29.519 19.5164 29.995 20.3104 29.7804C21.1043 29.5657 21.5765 28.7444 21.3635 27.9442C21.1506 27.1439 20.3358 26.6679 19.5419 26.8826Z" fill="url(#paint21_linear_32364_8593)"/>
<path d="M14.3731 28.6393C15.1416 28.9357 16.0004 28.5507 16.2967 27.7761C16.5929 27.0014 16.2087 26.1358 15.4402 25.8372C14.6717 25.5409 13.813 25.9259 13.5167 26.7005C13.2227 27.4751 13.6047 28.3407 14.3731 28.6393Z" fill="url(#paint22_linear_32364_8593)"/>
<path d="M12.2945 24.638C12.9843 24.1876 13.1788 23.2567 12.732 22.5638C12.2853 21.8685 11.3617 21.6725 10.6743 22.1228C9.98447 22.5731 9.79004 23.504 10.2368 24.197C10.6835 24.8923 11.6071 25.0883 12.2945 24.638Z" fill="url(#paint23_linear_32364_8593)"/>
<path d="M10.8872 19.7265C11.7089 19.7708 12.408 19.1339 12.4519 18.3079C12.4959 17.482 11.864 16.775 11.0446 16.7307C10.2229 16.6864 9.52385 17.3233 9.47987 18.1493C9.43589 18.9775 10.0678 19.6822 10.8872 19.7265Z" fill="url(#paint24_linear_32364_8593)"/>
<path d="M14.7041 14.701C15.2203 14.057 15.1231 13.1121 14.4843 12.5918C13.8454 12.0715 12.9079 12.1695 12.3918 12.8134C11.8756 13.4574 11.9728 14.4023 12.6117 14.9226C13.2505 15.4429 14.188 15.3449 14.7041 14.701Z" fill="url(#paint25_linear_32364_8593)"/>
<path d="M18.6322 13.1168C19.4261 12.9021 19.8983 12.0809 19.6854 11.2806C19.4724 10.4803 18.6577 10.0043 17.8637 10.219C17.0698 10.4336 16.5976 11.2549 16.8105 12.0552C17.0235 12.8555 17.8383 13.3314 18.6322 13.1168Z" fill="url(#paint26_linear_32364_8593)"/>
<path d="M24.655 13.299C24.949 12.5244 24.5671 11.6588 23.7986 11.3601C23.0301 11.0638 22.1714 11.4488 21.8751 12.2234C21.5811 12.998 21.963 13.8636 22.7315 14.1623C23.5 14.4586 24.3588 14.0736 24.655 13.299Z" fill="url(#paint27_linear_32364_8593)"/>
<path d="M27.4975 17.8762C28.1873 17.4259 28.3817 16.495 27.935 15.802C27.4882 15.1068 26.5647 14.9108 25.8772 15.3611C25.1874 15.8114 24.993 16.7423 25.4397 17.4353C25.8865 18.1306 26.81 18.3265 27.4975 17.8762Z" fill="url(#paint28_linear_32364_8593)"/>
<path d="M27.1295 23.266C27.9512 23.3104 28.6502 22.6734 28.6942 21.8475C28.7382 21.0192 28.1063 20.3146 27.2869 20.2702C26.4651 20.2259 25.7661 20.8629 25.7221 21.6888C25.6781 22.5171 26.3101 23.2217 27.1295 23.266Z" fill="url(#paint29_linear_32364_8593)"/>
<path d="M30.9256 29.7756C30.0298 29.1947 28.8377 29.456 28.2613 30.3589C27.685 31.2619 27.9442 32.4635 28.84 33.0444C29.7358 33.6254 30.9279 33.3641 31.5042 32.4611C32.0806 31.5582 31.8214 30.3566 30.9256 29.7756Z" fill="url(#paint30_linear_32364_8593)"/>
<path d="M20.4678 33.8167C19.4747 34.2064 18.984 35.3333 19.3706 36.3319C19.7571 37.3328 20.8751 37.8275 21.8658 37.4378C22.8588 37.0482 23.3496 35.9212 22.963 34.9226C22.5764 33.9217 21.4584 33.4271 20.4678 33.8167Z" fill="url(#paint31_linear_32364_8593)"/>
<path d="M12.3115 35.702C13.3124 35.3354 13.8289 34.2204 13.4652 33.2115C13.1015 32.2027 11.9953 31.682 10.9945 32.0486C9.99363 32.4152 9.4771 33.5302 9.84079 34.5391C10.2045 35.5479 11.3107 36.0686 12.3115 35.702Z" fill="url(#paint32_linear_32364_8593)"/>
<path d="M3.76256 25.3167C2.93852 25.9957 2.81584 27.2206 3.48942 28.0512C4.163 28.8818 5.37822 29.0055 6.20225 28.3265C7.02629 27.6476 7.14896 26.4226 6.47539 25.592C5.80181 24.7614 4.58659 24.6378 3.76256 25.3167Z" fill="url(#paint33_linear_32364_8593)"/>
<path d="M1.77191 17.2742C1.8321 18.3452 2.74409 19.1641 3.80654 19.1035C4.86898 19.0428 5.68376 18.1235 5.62126 17.0526C5.56108 15.9817 4.64909 15.1627 3.58664 15.2234C2.52419 15.284 1.70942 16.2033 1.77191 17.2742Z" fill="url(#paint34_linear_32364_8593)"/>
<path d="M7.24618 10.2212C8.14197 10.8021 9.33404 10.5408 9.9104 9.63788C10.4868 8.73494 10.2275 7.53335 9.33173 6.95239C8.43594 6.37143 7.24387 6.63274 6.66751 7.53568C6.09115 8.43862 6.35039 9.64021 7.24618 10.2212Z" fill="url(#paint35_linear_32364_8593)"/>
<path d="M17.7063 6.18244C18.6993 5.7928 19.19 4.66587 18.8035 3.66727C18.4169 2.66634 17.2989 2.17171 16.3082 2.56135C15.3175 2.95099 14.8245 4.07791 15.2111 5.07651C15.5976 6.07745 16.7156 6.57208 17.7063 6.18244Z" fill="url(#paint36_linear_32364_8593)"/>
<path d="M26.0253 8.00219C27.0554 8.27517 28.1109 7.65455 28.3817 6.61629C28.6525 5.57802 28.0368 4.51409 27.0068 4.24111C25.9767 3.96813 24.9212 4.58875 24.6504 5.62702C24.3796 6.66528 24.9953 7.72921 26.0253 8.00219Z" fill="url(#paint37_linear_32364_8593)"/>
<path d="M34.4092 14.68C35.2332 14.0011 35.3559 12.7761 34.6823 11.9455C34.0088 11.1149 32.7935 10.9913 31.9695 11.6702C31.1455 12.3492 31.0228 13.5741 31.6964 14.4047C32.3699 15.2353 33.5852 15.359 34.4092 14.68Z" fill="url(#paint38_linear_32364_8593)"/>
<path d="M36.3998 22.7247C36.3397 21.6538 35.4277 20.8325 34.3652 20.8955C33.3028 20.9561 32.488 21.8754 32.5505 22.9463C32.6107 24.0173 33.5227 24.8386 34.5851 24.7756C35.6476 24.7149 36.46 23.7956 36.3998 22.7247Z" fill="url(#paint39_linear_32364_8593)"/>
<path d="M55.2223 14.6074V15.8976C55.2223 16.1776 54.9978 16.4039 54.72 16.4039H52.1229V25.389C52.1229 25.669 51.8984 25.8953 51.6206 25.8953H49.7758C49.498 25.8953 49.2735 25.669 49.2735 25.389V16.4039H46.6764C46.3986 16.4039 46.1741 16.1776 46.1741 15.8976V14.6074C46.1741 14.3274 46.3986 14.1011 46.6764 14.1011H54.7223C55.0001 14.1011 55.2246 14.3274 55.2246 14.6074H55.2223Z" fill="currentColor"/>
<path d="M66.7888 14.6074V25.389C66.7888 25.669 66.5643 25.8953 66.2866 25.8953H64.4417C64.164 25.8953 63.9394 25.669 63.9394 25.389V21.0399H59.5068V25.389C59.5068 25.669 59.2823 25.8953 59.0045 25.8953H57.1597C56.8819 25.8953 56.6574 25.669 56.6574 25.389V14.6074C56.6574 14.3274 56.8819 14.1011 57.1597 14.1011H59.0045C59.2823 14.1011 59.5068 14.3274 59.5068 14.6074V18.7208H63.9394V14.6074C63.9394 14.3274 64.164 14.1011 64.4417 14.1011H66.2866C66.5643 14.1011 66.7888 14.3274 66.7888 14.6074Z" fill="currentColor"/>
<path d="M71.6891 16.404V18.7885H75.0037C75.2815 18.7885 75.506 19.0149 75.506 19.2948V20.5011C75.506 20.7811 75.2815 21.0074 75.0037 21.0074H71.6891V23.5949H75.5037C75.7815 23.5949 76.006 23.8212 76.006 24.1012V25.3914C76.006 25.6714 75.7815 25.8977 75.5037 25.8977H69.342C69.0642 25.8977 68.8397 25.6714 68.8397 25.3914V14.6098C68.8397 14.3298 69.0642 14.1035 69.342 14.1035H75.5037C75.7815 14.1035 76.006 14.3298 76.006 14.6098V15.9001C76.006 16.18 75.7815 16.4064 75.5037 16.4064H71.6891V16.404Z" fill="currentColor"/>
<path d="M80.7048 14.6074V25.389C80.7048 25.669 80.4803 25.8953 80.2025 25.8953H78.3577C78.08 25.8953 77.8554 25.669 77.8554 25.389V14.6074C77.8554 14.3274 78.08 14.1011 78.3577 14.1011H80.2025C80.4803 14.1011 80.7048 14.3274 80.7048 14.6074Z" fill="currentColor"/>
<path d="M90.0539 23.8118H85.6884L85.1028 25.5523C85.0333 25.7576 84.8435 25.8953 84.6282 25.8953H82.7209C82.3737 25.8953 82.1307 25.5476 82.2487 25.2163L86.1189 14.4347C86.1907 14.2341 86.3805 14.1011 86.5911 14.1011H89.1859C89.3965 14.1011 89.5863 14.2341 89.6581 14.4347L93.5283 25.2163C93.6463 25.5453 93.4033 25.8953 93.0561 25.8953H91.114C90.8988 25.8953 90.7066 25.7576 90.6395 25.5523L90.0539 23.8118ZM89.3201 21.5952L87.8711 17.2789L86.4383 21.5952H89.3225H89.3201Z" fill="currentColor"/>
<defs>
<linearGradient id="paint0_linear_32364_8593" x1="12.7945" y1="41.731" x2="40.8664" y2="13.8814" gradientUnits="userSpaceOnUse">
<stop stop-color="#019AD8"/>
<stop offset="1" stop-color="#9479FF"/>
</linearGradient>
<linearGradient id="paint1_linear_32364_8593" x1="13.2552" y1="42.1926" x2="41.3247" y2="14.343" gradientUnits="userSpaceOnUse">
<stop stop-color="#019AD8"/>
<stop offset="1" stop-color="#9479FF"/>
</linearGradient>
<linearGradient id="paint2_linear_32364_8593" x1="10.6233" y1="39.5398" x2="38.6952" y2="11.6925" gradientUnits="userSpaceOnUse">
<stop stop-color="#019AD8"/>
<stop offset="1" stop-color="#9479FF"/>
</linearGradient>
<linearGradient id="paint3_linear_32364_8593" x1="0.90159" y1="29.743" x2="28.9735" y2="1.89338" gradientUnits="userSpaceOnUse">
<stop stop-color="#019AD8"/>
<stop offset="1" stop-color="#9479FF"/>
</linearGradient>
<linearGradient id="paint4_linear_32364_8593" x1="5.90597" y1="34.7849" x2="33.9756" y2="6.9353" gradientUnits="userSpaceOnUse">
<stop stop-color="#019AD8"/>
<stop offset="1" stop-color="#9479FF"/>
</linearGradient>
<linearGradient id="paint5_linear_32364_8593" x1="9.41969" y1="38.3268" x2="37.4916" y2="10.4796" gradientUnits="userSpaceOnUse">
<stop stop-color="#019AD8"/>
<stop offset="1" stop-color="#9479FF"/>
</linearGradient>
<linearGradient id="paint6_linear_32364_8593" x1="4.41762" y1="33.2847" x2="32.4895" y2="5.4374" gradientUnits="userSpaceOnUse">
<stop stop-color="#019AD8"/>
<stop offset="1" stop-color="#9479FF"/>
</linearGradient>
<linearGradient id="paint7_linear_32364_8593" x1="-2.93156" y1="25.877" x2="25.138" y2="-1.97024" gradientUnits="userSpaceOnUse">
<stop stop-color="#019AD8"/>
<stop offset="1" stop-color="#9479FF"/>
</linearGradient>
<linearGradient id="paint8_linear_32364_8593" x1="-0.299744" y1="28.5297" x2="27.7698" y2="0.680089" gradientUnits="userSpaceOnUse">
<stop stop-color="#019AD8"/>
<stop offset="1" stop-color="#9479FF"/>
</linearGradient>
<linearGradient id="paint9_linear_32364_8593" x1="-2.47325" y1="26.3414" x2="25.5987" y2="-1.50821" gradientUnits="userSpaceOnUse">
<stop stop-color="#019AD8"/>
<stop offset="1" stop-color="#9479FF"/>
</linearGradient>
<linearGradient id="paint10_linear_32364_8593" x1="18.1669" y1="47.1464" x2="46.2389" y2="19.2968" gradientUnits="userSpaceOnUse">
<stop stop-color="#019AD8"/>
<stop offset="1" stop-color="#9479FF"/>
</linearGradient>
<linearGradient id="paint11_linear_32364_8593" x1="14.2528" y1="43.1987" x2="42.3224" y2="15.349" gradientUnits="userSpaceOnUse">
<stop stop-color="#019AD8"/>
<stop offset="1" stop-color="#9479FF"/>
</linearGradient>
<linearGradient id="paint12_linear_32364_8593" x1="6.86426" y1="35.7535" x2="34.9362" y2="7.90385" gradientUnits="userSpaceOnUse">
<stop stop-color="#019AD8"/>
<stop offset="1" stop-color="#9479FF"/>
</linearGradient>
<linearGradient id="paint13_linear_32364_8593" x1="-1.17238" y1="27.6503" x2="26.8972" y2="-0.199294" gradientUnits="userSpaceOnUse">
<stop stop-color="#019AD8"/>
<stop offset="1" stop-color="#9479FF"/>
</linearGradient>
<linearGradient id="paint14_linear_32364_8593" x1="-6.79248" y1="21.9876" x2="21.2794" y2="-5.862" gradientUnits="userSpaceOnUse">
<stop stop-color="#019AD8"/>
<stop offset="1" stop-color="#9479FF"/>
</linearGradient>
<linearGradient id="paint15_linear_32364_8593" x1="-7.84567" y1="20.9261" x2="20.2262" y2="-6.92347" gradientUnits="userSpaceOnUse">
<stop stop-color="#019AD8"/>
<stop offset="1" stop-color="#9479FF"/>
</linearGradient>
<linearGradient id="paint16_linear_32364_8593" x1="-3.92921" y1="24.8714" x2="24.1404" y2="-2.97825" gradientUnits="userSpaceOnUse">
<stop stop-color="#019AD8"/>
<stop offset="1" stop-color="#9479FF"/>
</linearGradient>
<linearGradient id="paint17_linear_32364_8593" x1="3.45702" y1="32.3188" x2="31.5289" y2="4.46925" gradientUnits="userSpaceOnUse">
<stop stop-color="#019AD8"/>
<stop offset="1" stop-color="#9479FF"/>
</linearGradient>
<linearGradient id="paint18_linear_32364_8593" x1="11.496" y1="40.4195" x2="39.5679" y2="12.5722" gradientUnits="userSpaceOnUse">
<stop stop-color="#019AD8"/>
<stop offset="1" stop-color="#9479FF"/>
</linearGradient>
<linearGradient id="paint19_linear_32364_8593" x1="17.1138" y1="46.0844" x2="45.1857" y2="18.2348" gradientUnits="userSpaceOnUse">
<stop stop-color="#019AD8"/>
<stop offset="1" stop-color="#9479FF"/>
</linearGradient>
<linearGradient id="paint20_linear_32364_8593" x1="11.0261" y1="39.9483" x2="39.098" y2="12.0987" gradientUnits="userSpaceOnUse">
<stop stop-color="#019AD8"/>
<stop offset="1" stop-color="#9479FF"/>
</linearGradient>
<linearGradient id="paint21_linear_32364_8593" x1="9.71365" y1="38.6254" x2="37.7856" y2="10.7758" gradientUnits="userSpaceOnUse">
<stop stop-color="#019AD8"/>
<stop offset="1" stop-color="#9479FF"/>
</linearGradient>
<linearGradient id="paint22_linear_32364_8593" x1="6.66288" y1="35.5479" x2="34.7325" y2="7.69826" gradientUnits="userSpaceOnUse">
<stop stop-color="#019AD8"/>
<stop offset="1" stop-color="#9479FF"/>
</linearGradient>
<linearGradient id="paint23_linear_32364_8593" x1="3.03574" y1="31.8941" x2="31.1076" y2="4.04454" gradientUnits="userSpaceOnUse">
<stop stop-color="#019AD8"/>
<stop offset="1" stop-color="#9479FF"/>
</linearGradient>
<linearGradient id="paint24_linear_32364_8593" x1="0.22338" y1="29.0569" x2="28.293" y2="1.2096" gradientUnits="userSpaceOnUse">
<stop stop-color="#019AD8"/>
<stop offset="1" stop-color="#9479FF"/>
</linearGradient>
<linearGradient id="paint25_linear_32364_8593" x1="-0.704814" y1="28.1214" x2="27.3671" y2="0.274154" gradientUnits="userSpaceOnUse">
<stop stop-color="#019AD8"/>
<stop offset="1" stop-color="#9479FF"/>
</linearGradient>
<linearGradient id="paint26_linear_32364_8593" x1="0.607612" y1="29.4467" x2="28.6795" y2="1.59709" gradientUnits="userSpaceOnUse">
<stop stop-color="#019AD8"/>
<stop offset="1" stop-color="#9479FF"/>
</linearGradient>
<linearGradient id="paint27_linear_32364_8593" x1="3.66072" y1="32.5221" x2="31.7303" y2="4.67479" gradientUnits="userSpaceOnUse">
<stop stop-color="#019AD8"/>
<stop offset="1" stop-color="#9479FF"/>
</linearGradient>
<linearGradient id="paint28_linear_32364_8593" x1="7.28553" y1="36.1754" x2="35.3574" y2="8.32809" gradientUnits="userSpaceOnUse">
<stop stop-color="#019AD8"/>
<stop offset="1" stop-color="#9479FF"/>
</linearGradient>
<linearGradient id="paint29_linear_32364_8593" x1="10.1002" y1="39.0127" x2="38.1698" y2="11.163" gradientUnits="userSpaceOnUse">
<stop stop-color="#019AD8"/>
<stop offset="1" stop-color="#9479FF"/>
</linearGradient>
<linearGradient id="paint30_linear_32364_8593" x1="16.2203" y1="45.1816" x2="44.2922" y2="17.3343" gradientUnits="userSpaceOnUse">
<stop stop-color="#019AD8"/>
<stop offset="1" stop-color="#9479FF"/>
</linearGradient>
<linearGradient id="paint31_linear_32364_8593" x1="13.9542" y1="42.8974" x2="42.0238" y2="15.0502" gradientUnits="userSpaceOnUse">
<stop stop-color="#019AD8"/>
<stop offset="1" stop-color="#9479FF"/>
</linearGradient>
<linearGradient id="paint32_linear_32364_8593" x1="8.32791" y1="37.2275" x2="36.3975" y2="9.38021" gradientUnits="userSpaceOnUse">
<stop stop-color="#019AD8"/>
<stop offset="1" stop-color="#9479FF"/>
</linearGradient>
<linearGradient id="paint33_linear_32364_8593" x1="1.49415" y1="30.3377" x2="29.566" y2="2.49044" gradientUnits="userSpaceOnUse">
<stop stop-color="#019AD8"/>
<stop offset="1" stop-color="#9479FF"/>
</linearGradient>
<linearGradient id="paint34_linear_32364_8593" x1="-3.94077" y1="24.8617" x2="24.1311" y2="-2.98787" gradientUnits="userSpaceOnUse">
<stop stop-color="#019AD8"/>
<stop offset="1" stop-color="#9479FF"/>
</linearGradient>
<linearGradient id="paint35_linear_32364_8593" x1="-5.89669" y1="22.888" x2="22.1729" y2="-4.96162" gradientUnits="userSpaceOnUse">
<stop stop-color="#019AD8"/>
<stop offset="1" stop-color="#9479FF"/>
</linearGradient>
<linearGradient id="paint36_linear_32364_8593" x1="-3.63059" y1="25.1722" x2="24.439" y2="-2.67744" gradientUnits="userSpaceOnUse">
<stop stop-color="#019AD8"/>
<stop offset="1" stop-color="#9479FF"/>
</linearGradient>
<linearGradient id="paint37_linear_32364_8593" x1="1.99412" y1="30.8417" x2="30.0637" y2="2.99204" gradientUnits="userSpaceOnUse">
<stop stop-color="#019AD8"/>
<stop offset="1" stop-color="#9479FF"/>
</linearGradient>
<linearGradient id="paint38_linear_32364_8593" x1="8.82712" y1="37.7318" x2="36.899" y2="9.88221" gradientUnits="userSpaceOnUse">
<stop stop-color="#019AD8"/>
<stop offset="1" stop-color="#9479FF"/>
</linearGradient>
<linearGradient id="paint39_linear_32364_8593" x1="14.2621" y1="43.2077" x2="42.3339" y2="15.3604" gradientUnits="userSpaceOnUse">
<stop stop-color="#019AD8"/>
<stop offset="1" stop-color="#9479FF"/>
</linearGradient>
</defs>
</svg>
