<svg width="32" height="32" viewBox="0 0 32 32" fill="none" xmlns="http://www.w3.org/2000/svg">
<g clip-path="url(#clip0_26137_3153)">
<path d="M31.9895 4.73014C32.0195 3.95014 31.3797 3.31014 30.58 3.27014C26.7612 3.08014 23.5623 2.13014 21.1531 1.10014C17.8042 -0.329858 14.0254 -0.359858 10.6765 1.06014C8.21735 2.11014 5.0284 3.08014 1.3796 3.27014C0.609853 3.31014 5.42484e-05 3.89014 5.42484e-05 4.63014C-0.0199392 10.5101 0.449906 25.4901 15.285 31.8601C15.7249 32.0501 16.2447 32.0401 16.6746 31.8401C30.2001 25.5401 31.8096 10.2901 31.9995 4.72014L31.9895 4.73014Z" fill="#5DAD00"/>
<path d="M31.999 4.86558C32.029 4.05529 31.389 3.40506 30.5891 3.36504C26.7492 3.16497 23.5494 2.18462 21.1295 1.11423C17.7897 -0.356298 14.0299 -0.376305 10.68 1.08422C8.22015 2.16461 5.0203 3.16497 1.38048 3.36504C0.610518 3.40506 0.00054798 3.99527 0.00054798 4.75554C-0.019451 10.6977 0.430527 23.0221 14.4898 29.6745C15.4298 30.1247 16.5197 30.1047 17.4497 29.6345C30.2591 23.0321 31.819 10.4776 31.999 4.85558V4.86558Z" fill="#82D60B"/>
<path d="M1.3805 3.36063C5.02038 3.16064 8.22027 2.16069 10.6802 1.08074C12.3801 0.340773 14.1901 -0.0192096 16 0.000789436V29.9994C15.49 30.0094 14.97 29.8994 14.4901 29.6794C0.430533 23.0297 -0.0194513 10.7003 0.000547989 4.76057C0.000547989 4.0006 0.610527 3.40063 1.3805 3.36063Z" fill="#8AEA00"/>
<path d="M23.5548 9.93949C22.9745 9.36001 22.0239 9.36001 21.4436 9.93949L14.4898 16.8932L10.6877 13.1066C10.6477 13.0467 10.5977 12.9867 10.5477 12.9368C9.96735 12.3573 9.01683 12.3573 8.43651 12.9368C7.85619 13.5162 7.85619 14.4454 8.42651 15.0349L8.4065 15.0548L13.4493 20.0703C14.0296 20.6498 14.9801 20.6498 15.5604 20.0703L23.5648 12.0676C24.1451 11.4881 24.1451 10.5389 23.5648 9.95947L23.5548 9.93949Z" fill="white"/>
</g>
<defs>
<clipPath id="clip0_26137_3153">
<rect width="32" height="32" fill="white"/>
</clipPath>
</defs>
</svg>
