<svg width="32" height="32" viewBox="0 0 32 32" fill="none" xmlns="http://www.w3.org/2000/svg">
<g clip-path="url(#clip0_32381_8071)">
<path d="M9.09335 19.1867L5.28001 20.44C3.57335 21 2.05335 22.5333 1.48001 24.24L0.226679 28.0533C-0.666654 30.7733 1.22668 32.68 3.94668 31.7733L7.76001 30.52C9.46668 29.96 10.9867 28.4267 11.56 26.72L12.8133 22.9067C13.7067 20.1867 11.8133 18.28 9.09335 19.1867Z" fill="#FF9F17"/>
<path d="M9.64001 19.7067L7.38668 20.6133C6.38668 21.0133 5.50668 21.8933 5.10668 22.8933L4.20001 25.1467C3.38668 27.16 4.82668 28.6 6.85335 27.8L9.10668 26.8933C10.1067 26.4933 10.9867 25.6133 11.3867 24.6133L12.2933 22.36C13.1067 20.3467 11.6667 18.9067 9.64001 19.7067Z" fill="#F96500"/>
<path d="M17.56 27C17.9067 28.0533 18.04 29.1066 17.9733 30.1333C17.8933 31.4266 19.2133 32.36 20.4133 31.8666C21.88 31.2666 23.2267 30.1733 24.1733 28.68C26.4533 25.0933 27.0267 19.3866 23.7733 17.32C20.64 15.3333 15.12 17.4133 12.6667 20.76C14.8533 22.0133 16.7333 24.5066 17.56 27.0133V27Z" fill="#0098ED"/>
<path d="M17.56 27C17.9067 28.0533 18.04 29.1066 17.9733 30.1333C17.8933 31.4266 19.2133 32.36 20.4133 31.8666C21.88 31.2666 23.2267 30.1733 24.1733 28.68C26.4533 25.0933 27.0267 19.3866 23.7733 17.32C20.64 15.3333 15.12 17.4133 12.6667 20.76C14.8533 22.0133 16.7333 24.5066 17.56 27.0133V27Z" fill="#0098ED"/>
<path d="M25.52 19.4266L22.3467 22.6C21.6 23.3466 21.0133 24.2666 20.72 25.2933C20.6267 25.6 20.5867 25.8666 20.6267 25.9866C20.9733 27.04 21.1067 28.0933 21.04 29.12C20.9867 29.9333 21.48 30.5866 22.1467 30.8666C22.92 30.28 23.6267 29.5733 24.1867 28.6933C25.9067 25.9866 26.6533 22.0933 25.52 19.44V19.4266Z" fill="#0098ED"/>
<path d="M25.52 19.4266L22.36 22.5866C20.32 24.6266 20.4933 25.5866 20.6267 25.9866C20.9733 27.04 21.1067 28.0933 21.04 29.12C20.9867 29.9333 21.48 30.5866 22.1467 30.8666C22.92 30.28 23.6267 29.5733 24.1867 28.6933C25.9067 25.9866 26.6533 22.0933 25.52 19.44V19.4266Z" fill="#3ECAFF"/>
<path d="M5.00001 14.44C3.94667 14.0933 2.89334 13.96 1.86667 14.0267C0.573341 14.1067 -0.359993 12.7866 0.133341 11.5866C0.746674 10.12 1.82667 8.77332 3.32001 7.82665C6.90667 5.54665 12.6133 4.97332 14.68 8.22665C16.6667 11.36 14.5867 16.88 11.24 19.3333C9.98667 17.1466 7.49334 15.28 4.98667 14.44H5.00001Z" fill="#0098ED"/>
<path d="M5.00001 14.44C3.94667 14.0933 2.89334 13.96 1.86667 14.0267C0.573341 14.1067 -0.359993 12.7866 0.133341 11.5866C0.746674 10.12 1.82667 8.77332 3.32001 7.82665C6.90667 5.54665 12.6133 4.97332 14.68 8.22665C16.6667 11.36 14.5867 16.88 11.24 19.3333C9.98667 17.1466 7.49334 15.28 4.98667 14.44H5.00001Z" fill="#0098ED"/>
<path d="M12.5733 6.47997L9.40001 9.6533C8.65335 10.4 7.73335 10.9866 6.70668 11.28C6.40001 11.3733 6.13335 11.4133 6.01335 11.3733C4.96001 11.0266 3.90668 10.8933 2.88001 10.96C2.06668 11.0133 1.41335 10.52 1.13335 9.8533C1.72001 9.07997 2.42668 8.3733 3.30668 7.8133C6.01335 6.0933 9.92001 5.34663 12.56 6.47997H12.5733Z" fill="#0098ED"/>
<path d="M12.5733 6.47997L9.41335 9.63997C7.37335 11.68 6.41335 11.5066 6.01335 11.3733C4.96001 11.0266 3.90668 10.8933 2.88001 10.96C2.06668 11.0133 1.41335 10.52 1.13335 9.8533C1.72001 9.07997 2.42668 8.3733 3.30668 7.8133C6.01335 6.0933 9.92001 5.34663 12.56 6.47997H12.5733Z" fill="#3ECAFF"/>
<path fill-rule="evenodd" clip-rule="evenodd" d="M32 0.599959C31.4933 8.33329 28.9867 14.5466 22.9467 20.68L20.28 23.0266C19.0267 24.0133 17.6133 24.9866 16.2667 25.8666C14.92 26.7466 13.3467 26.8533 11.9733 26.2666L11.8667 26.2266C11.3467 26.0133 10.8933 25.6933 10.4933 25.3066L6.70668 21.52C6.30668 21.12 6.00001 20.6533 5.78668 20.1466C5.18668 18.7333 5.37334 17.0666 6.28001 15.7466L9.00001 11.7333C9.48001 11.12 9.94668 10.5466 10.4133 10.04L11.0933 9.31996C17.2933 3.07996 23.56 0.519959 31.4 -4.11599e-05C31.7467 -0.0267078 32.0133 0.253292 32 0.599959Z" fill="#0098ED"/>
<path fill-rule="evenodd" clip-rule="evenodd" d="M13 19.04L31.8533 0.186636C31.7467 0.0666361 31.5867 -3.05176e-05 31.4 -3.05176e-05C23.56 0.519969 17.2933 3.07997 11.0667 9.30664L10.3867 10.0266C9.92001 10.5333 9.45334 11.1066 8.97334 11.72L6.25334 15.7333C6.10668 15.9466 6.01334 16.1866 5.90668 16.4133L8.53334 19.04C9.76001 20.2666 11.76 20.2666 13 19.04Z" fill="#3ECAFF"/>
<path d="M20.24 17.52C23.4212 17.52 26 14.9411 26 11.76C26 8.57881 23.4212 5.99997 20.24 5.99997C17.0589 5.99997 14.48 8.57881 14.48 11.76C14.48 14.9411 17.0589 17.52 20.24 17.52Z" fill="#0098ED"/>
<path d="M20.24 16.08C22.6259 16.08 24.56 14.1458 24.56 11.76C24.56 9.3741 22.6259 7.43997 20.24 7.43997C17.8541 7.43997 15.92 9.3741 15.92 11.76C15.92 14.1458 17.8541 16.08 20.24 16.08Z" fill="#C7EFFF"/>
<path opacity="0.7" d="M16.7467 9.22664C17.4533 8.70664 18.3333 8.39997 19.28 8.39997C21.6667 8.39997 23.6 10.3333 23.6 12.72C23.6 13.6666 23.2933 14.5466 22.7733 15.2533C23.8533 14.4666 24.56 13.2 24.56 11.76C24.56 9.37331 22.6267 7.43997 20.24 7.43997C18.8 7.43997 17.5333 8.14664 16.7467 9.22664Z" fill="#61DAFF"/>
<path d="M22.0267 12.6533C22.1333 12.76 22.1333 12.9333 22.0267 13.04C20.44 14.6266 17.88 14.6266 16.2933 13.04C16.1867 12.9333 16.1867 12.76 16.2933 12.6533C16.4 12.5466 16.5733 12.5466 16.68 12.6533C18.0533 14.0266 20.28 14.0266 21.6533 12.6533C21.76 12.5466 21.9333 12.5466 22.04 12.6533H22.0267Z" fill="white"/>
</g>
<defs>
<clipPath id="clip0_32381_8071">
<rect width="32" height="32" fill="white"/>
</clipPath>
</defs>
</svg>
