<svg width="16" height="16" viewBox="0 0 16 16" fill="none" xmlns="http://www.w3.org/2000/svg">
<path fill-rule="evenodd" clip-rule="evenodd" d="M5.99411 0.698215C7.14217 -0.218979 8.79007 -0.239433 9.95017 0.677707C11.9436 2.25376 13.7462 4.05726 15.3222 6.05075C16.2393 7.21084 16.2189 8.85779 15.3017 10.0058C13.7511 11.9467 11.9467 13.7511 10.0058 15.3017C8.85777 16.2189 7.20986 16.2394 6.04978 15.3222C4.05649 13.7463 2.25362 11.9434 0.677706 9.95017C-0.239434 8.79008 -0.218977 7.14217 0.698214 5.99411C2.24882 4.0533 4.05329 2.24882 5.99411 0.698215ZM7.99997 10.3994C7.55852 10.3994 7.20037 10.7568 7.20017 11.1982C7.20017 11.6398 7.5584 11.998 7.99997 11.998C8.44158 11.998 8.79978 11.6398 8.79978 11.1982C8.79958 10.7568 8.44146 10.3994 7.99997 10.3994ZM7.99997 3.80271C7.6688 3.80275 7.40037 4.07114 7.40036 4.40232V8.40036C7.40058 8.73135 7.66894 8.99993 7.99997 8.99997C8.33104 8.99997 8.59936 8.73138 8.59958 8.40036V4.40232C8.59958 4.07111 8.33118 3.80271 7.99997 3.80271Z" fill="#4B4D77"/>
</svg>
